<svg width="50" height="50" xmlns="http://www.w3.org/2000/svg" xmlns:svg="http://www.w3.org/2000/svg">
  <!-- Created with SVG-edit - https://github.com/SVG-Edit/svgedit-->
  <g class="layer">
    <path
      d="m14.81,25.57c0.65,-0.62 0.85,-1.02 0.85,-1.02l0.05,0c0,0 -0.02,0.55 -0.02,1.1l0,11.36l-3.89,0l0,2.14l10.12,0l0,-2.14l-3.84,0l0,-15.45l-2.19,0l-4.21,4.09l1.49,1.55l1.64,-1.62zm9.15,12.24c0,0.43 0.05,0.87 0.12,1.34l11.34,0l0,-2.14l-8.72,0c0.05,-4.01 8.45,-4.91 8.45,-10.69c0,-3.04 -2.31,-5.06 -5.56,-5.06c-3.96,0 -5.56,3.34 -5.56,3.34l1.82,1.22c0,0 1.25,-2.24 3.57,-2.24c1.84,0 3.16,1.17 3.16,2.92c0,4.15 -8.62,5.04 -8.62,11.32zm-8.65,-36.58l-4.16,0l0,6.93l4.16,0l0,-6.93zm22.86,2.42l0,6.59l-8.31,0l0,-6.59l-12.47,0l0,6.58l-8.31,0l0,-6.58l-5.03,0l0,45.02l39.13,0l0,-45.02l-5.02,0zm2.94,42.94l-34.98,0l0,-30.99l34.98,0l0,30.99zm-5.02,-45.37l-4.16,0l0,6.93l4.16,0l0,-6.93z"
      fill="none"
      stroke="#ff00ff"/>
  </g>
</svg>
