<?xml version="1.0" encoding="UTF-8" standalone="no"?>
<svg
   width="16"
   height="16"
   viewBox="0 0 24 25.6"
   version="1.1"
   id="svg6"
   sodipodi:docname="x.svg"
   inkscape:version="1.2.2 (b0a84865, 2022-12-01)"
   xmlns:inkscape="http://www.inkscape.org/namespaces/inkscape"
   xmlns:sodipodi="http://sodipodi.sourceforge.net/DTD/sodipodi-0.dtd"
   xmlns="http://www.w3.org/2000/svg"
   xmlns:svg="http://www.w3.org/2000/svg">
  <defs
     id="defs10" />
  <sodipodi:namedview
     id="namedview8"
     pagecolor="#ffffff"
     bordercolor="#000000"
     borderopacity="0"
     inkscape:showpageshadow="2"
     inkscape:pageopacity="0"
     inkscape:pagecheckerboard="0"
     inkscape:deskcolor="#b8b8b8"
     showgrid="true"
     inkscape:zoom="15.733333"
     inkscape:cx="8.0084746"
     inkscape:cy="7.5"
     inkscape:window-width="1309"
     inkscape:window-height="456"
     inkscape:window-x="0"
     inkscape:window-y="38"
     inkscape:window-maximized="0"
     inkscape:current-layer="svg6"
     showguides="true">
    <inkscape:grid
       type="xygrid"
       id="grid425" />
    <sodipodi:guide
       position="7.4949877,19.16447"
       orientation="1,0"
       id="guide427"
       inkscape:locked="false" />
    <sodipodi:guide
       position="4.3228352,14.686137"
       orientation="0,-1"
       id="guide429"
       inkscape:locked="false" />
  </sodipodi:namedview>
  <path
     fill="WindowText"
     d="m 19.796611,4.0169492 h -1 V 2.0169491 h -2 V 4.0169492 H 6.7966111 V 2.0169491 h -2 v 2.0000001 h -1 c -1.1,0 -2,0.9 -2,2 V 22.016949 c 0,1.1 0.9,2 2,2 H 19.796611 c 1.1,0 1.999999,-0.9 1.999999,-2 V 6.0169492 c 0,-1.1 -0.899999,-2 -1.999999,-2 z m 0,17.9999998 H 3.7966111 V 9.0169492 H 19.796611 Z"
     id="path2"
     style="fill:#ff00ff" />
  <rect
     style="fill:#ff00ff;stroke-width:1.07145"
     id="rect347"
     width="1.6"
     height="1.6"
     x="7.1651568"
     y="10.933127" />
  <rect
     style="fill:#ff00ff;stroke-width:1.07145"
     id="rect347-6"
     width="1.6"
     height="1.6"
     x="11.785791"
     y="10.94659" />
  <rect
     style="fill:#ff00ff;stroke-width:1.07145"
     id="rect347-6-7"
     width="1.6"
     height="1.6"
     x="13.593159"
     y="16.051802" />
  <rect
     style="fill:#ff00ff;stroke-width:1.73177"
     id="rect423"
     width="6.4000001"
     height="1.6"
     x="7.2088275"
     y="17.492632" />
</svg>
