<svg width="40" height="20" xmlns="http://www.w3.org/2000/svg" xmlns:svg="http://www.w3.org/2000/svg">
  <!-- Created with SVG-edit - https://github.com/SVG-Edit/svgedit-->
  <title>picker</title>
  <g class="layer">
    <title>Layer 1</title>
    <path d="m28.11,6.22c-0.13,-0.42 -0.32,-0.42 0.27,-1.57l2,-3.58c0.03,-0.05 0.24,-0.42 0.23,-0.96c0.02,-0.54 -0.38,-1.31 -1.35,-1.67c-1.42,-0.56 -1.41,-0.57 -2.83,-1.13c-0.95,-0.4 -1.91,-0.17 -2.39,0.18c-0.51,0.34 -0.71,0.71 -0.74,0.76l-2.01,3.58c-0.68,1.1 -0.79,0.99 -1.27,1.17c-0.57,0.13 -1.5,0.57 -2.16,1.85c-1.34,2.39 -1.34,2.39 -1.34,2.39l-0.33,0.6l1.41,0.56l-4.35,7.76c-0.46,0.84 -0.2,1.46 -0.2,2.07c0.01,0.64 -0.09,1.54 -1.06,3.27l-0.33,0.6l4.25,1.69l0.33,-0.6c0.98,-1.73 1.73,-2.37 2.32,-2.77c0.56,-0.39 1.29,-0.61 1.77,-1.45l4.35,-7.76l1.42,0.56l0.34,-0.6c0,0 0,0 1.33,-2.39c0.76,-1.24 0.57,-2.12 0.33,-2.58zm-9.18,12.19c-0.19,0.36 -0.5,0.45 -1.32,0.97c-0.7,0.46 -1.53,1.19 -2.43,2.65l-1.44,-0.57c0.76,-1.51 0.91,-2.52 0.88,-3.26c-0.04,-0.87 -0.15,-1.12 0.05,-1.48l4.35,-7.76l4.25,1.69l-4.35,7.76z" fill="none" id="svg_3" stroke="#000000" transform="rotate(31.9347 21.1501 10.4376)"/>
  </g>
</svg>
